<?xml version="1.0" encoding="UTF-8" standalone="no"?>
<!-- Created with Inkscape (http://www.inkscape.org/) -->

<svg
   xmlns:dc="http://purl.org/dc/elements/1.1/"
   xmlns:cc="http://creativecommons.org/ns#"
   xmlns:rdf="http://www.w3.org/1999/02/22-rdf-syntax-ns#"
   xmlns:svg="http://www.w3.org/2000/svg"
   xmlns="http://www.w3.org/2000/svg"
   xmlns:sodipodi="http://sodipodi.sourceforge.net/DTD/sodipodi-0.dtd"
   xmlns:inkscape="http://www.inkscape.org/namespaces/inkscape"
   width="269.77206mm"
   height="75.323799mm"
   viewBox="0 0 955.88527 266.89535"
   id="svg5485"
   version="1.1"
   inkscape:version="0.91 r13725"
   sodipodi:docname="paint banner.svg">
  <defs
     id="defs5487" />
  <sodipodi:namedview
     id="base"
     pagecolor="#ffffff"
     bordercolor="#666666"
     borderopacity="1.0"
     inkscape:pageopacity="0.0"
     inkscape:pageshadow="2"
     inkscape:zoom="0.35"
     inkscape:cx="794.21373"
     inkscape:cy="-370.74639"
     inkscape:document-units="px"
     inkscape:current-layer="layer1"
     showgrid="false"
     fit-margin-top="0"
     fit-margin-left="0"
     fit-margin-right="0"
     fit-margin-bottom="0"
     inkscape:window-width="1366"
     inkscape:window-height="705"
     inkscape:window-x="-8"
     inkscape:window-y="-8"
     inkscape:window-maximized="1" />
  <metadata
     id="metadata5490">
    <rdf:RDF>
      <cc:Work
         rdf:about="">
        <dc:format>image/svg+xml</dc:format>
        <dc:type
           rdf:resource="http://purl.org/dc/dcmitype/StillImage" />
        <dc:title></dc:title>
      </cc:Work>
    </rdf:RDF>
  </metadata>
  <g
     inkscape:label="Layer 1"
     inkscape:groupmode="layer"
     id="layer1"
     transform="translate(419.21373,302.40079)">
    <path
       style="fill:#000000"
       d="m 129.44057,-302.39844 c -49.719261,0.0229 -97.638941,0.22906 -99.550781,0.59766 -1.31772,0.25405 -13.24272,0.5068 -26.5000004,0.5625 -22.7203696,0.0955 -55.0097596,1.70536 -78.6035196,3.91797 -5.775,0.54158 -16.35,1.22748 -23.5,1.52539 -7.149999,0.29791 -16.149999,0.77132 -19.999999,1.05078 -3.85,0.27945 -11.05,0.72869 -16,1 -8.57359,0.46991 -17.66051,1.25354 -40,3.44336 -5.5,0.53913 -15.175,1.46103 -21.5,2.05078 -6.325,0.58975 -17.575,1.99638 -25,3.125 -7.425,1.12862 -16.65,2.40426 -20.5,2.83398 -25.35915,2.83042 -77.08157,11.57729 -92,15.5586 -3.3,0.88067 -8.475,2.22141 -11.5,2.97851 -7.66037,1.91725 -11.49831,3.00519 -19,5.39063 -3.575,1.1368 -7.62848,2.07022 -9.00586,2.07422 -1.37738,0.004 -5.60562,1.13281 -9.39648,2.50781 -3.79086,1.375 -7.68165,2.5 -8.64648,2.5 -2.59986,0 -15.48462,5.76567 -15.2461,6.82227 0.11291,0.50018 -1.68709,1.6884 -4,2.63867 -5.78865,2.37829 -3.05242,3.04455 4.60938,1.12304 7.73217,-1.93915 8.45376,-1.95277 8.86132,-0.16601 0.27531,1.20697 0.89616,1.21842 4.17579,0.082 7.86392,-2.72483 8.64951,-2.7475 8.63281,-0.26758 -0.0112,1.66617 -0.24525,1.90565 -0.88086,0.90235 -0.62563,-0.98756 -1.35872,-1.09067 -2.64453,-0.3711 -1.6552,0.9263 -1.62747,1.07657 0.4082,2.16602 1.20335,0.64402 1.94936,1.55623 1.6582,2.02734 -0.29116,0.47112 0.4844,0.59643 1.72266,0.27734 2.01098,-0.5182 2.10296,-0.40076 0.86914,1.10352 -1.25566,1.5309 -1.07373,1.63961 2,1.18945 1.85972,-0.27236 5.18281,-0.94289 7.38281,-1.48828 2.2,-0.54539 5.575,-0.95616 7.5,-0.91406 l 3.5,0.0762 -3.92187,0.91992 c -2.15693,0.50578 -4.46219,1.36755 -5.12305,1.91602 -0.66086,0.54846 -1.87548,0.73992 -2.69922,0.42383 -0.86371,-0.33145 -1.76243,0.11495 -2.12304,1.05468 -0.37287,0.97167 -1.53504,1.52135 -2.87891,1.36328 -2.90541,-0.34174 -9.93146,2.026 -9.25586,3.11914 0.28439,0.46016 1.97659,0.44582 3.75977,-0.0332 1.78318,-0.47902 3.91718,-0.79191 4.74218,-0.69531 0.825,0.0966 4.09003,-0.40744 7.25586,-1.11914 3.16584,-0.7117 6.54084,-1.12973 7.5,-0.92969 0.95917,0.20003 -1.14688,1.01717 -4.67969,1.81641 -3.5328,0.79925 -7.03576,2.06701 -7.78515,2.81641 -0.7494,0.74936 -2.24642,1.13001 -3.32617,0.84765 -1.07974,-0.28236 -2.19991,-0.13065 -2.48828,0.33594 -0.28837,0.46659 -2.53782,1.15031 -5,1.51953 -7.18206,1.07702 -5.15423,2.38528 2.67968,1.72852 5.15567,-0.43224 6.96326,-0.28887 6.46485,0.51757 -0.38052,0.61569 -2.23565,1.4096 -4.12305,1.76368 -1.8874,0.35408 -4.68403,1.75763 -6.21484,3.11914 l -2.78321,2.47656 4.5,-0.68945 c 4.98419,-0.7622 4.9366,-0.75677 6.8711,-0.58985 1.1058,0.0954 1.13192,0.40863 0.1289,1.61719 -0.68469,0.825 -1.67425,1.5 -2.19922,1.5 -0.52495,0 -2.27435,1.31928 -3.88671,2.93164 -1.61235,1.61236 -3.84577,3.07486 -4.96289,3.25 -2.8139,0.44116 -2.48984,2.30868 0.41015,2.36328 1.30333,0.0245 3.09263,0.76646 3.97461,1.64844 1.47148,1.47148 1.41954,1.73065 -0.61719,3.15234 l -2.21875,1.55078 2.5,0.1211 c 2.20181,0.1081 2.2694,0.21397 0.56641,0.88086 -1.0635,0.41647 -1.48262,1.03717 -0.92969,1.3789 0.55293,0.34173 2.26289,-0.0313 3.79883,-0.82812 1.53593,-0.79685 4.6531,-1.4302 6.92773,-1.4082 4.04513,0.0392 4.08198,0.0684 1.63672,1.38671 -1.375,0.74132 -5.03585,1.87036 -8.13476,2.50782 -5.1501,1.05938 -5.7021,1.43354 -6.41797,4.36133 -0.43076,1.76171 -0.82164,3.84682 -0.86914,4.63281 -0.0475,0.786 -1.20915,1.7746 -2.58203,2.19726 -1.37288,0.42266 -6.07404,1.84639 -10.44532,3.16407 -8.31654,2.50693 -10.97834,4.70898 -5.69335,4.70898 1.66337,0 3.30265,-0.45 3.64257,-1 0.65049,-1.05252 6.76568,-1.40035 7.72657,-0.43945 0.30834,0.30833 -0.61615,1.73919 -2.05469,3.17773 -1.93141,1.93141 -2.25276,2.7354 -1.23047,3.07617 0.76141,0.2538 1.95141,-0.31701 2.64648,-1.26758 1.53642,-2.10116 5.61497,-1.23803 4.75391,1.00586 -0.67006,1.74617 3.37018,1.96407 8.59766,0.46485 1.88494,-0.54064 3.66181,-0.74834 3.94922,-0.46094 0.28741,0.28741 -0.47012,0.78228 -1.6836,1.09961 -2.23412,0.58424 -3.0946,2.34375 -1.14648,2.34375 2.1236,0 -0.16333,1.86543 -3.07032,2.50391 -1.64369,0.36101 -2.98828,1.09921 -2.98828,1.64257 0,0.54338 0.7875,0.75516 1.75,0.46875 4.76112,-1.4168 15.62612,-3.60561 17.56055,-3.5371 2.63762,0.0934 -17.85062,7.00391 -21.06055,7.10351 -1.2375,0.0384 -2.25,0.4934 -2.25,1.01172 0,0.51831 -0.9,0.65577 -2,0.30664 -1.17167,-0.37187 -2,-0.17886 -2,0.46484 0,1.50284 3.0462,2.56139 3.84961,1.33789 0.65241,-0.99356 7.15039,-2.63697 7.15039,-1.80859 0,0.24369 -1.2375,1.15122 -2.75,2.01758 -2.71546,1.55542 -2.68852,1.56767 2.19727,0.94141 4.31464,-0.55305 4.78936,-0.4424 3.70898,0.85937 -0.68142,0.82107 -2.45732,1.78933 -3.94726,2.15234 -1.48994,0.363 -5.70863,2.46092 -9.375,4.66211 -3.66637,2.20119 -7.91275,4.33493 -9.43555,4.74219 -1.5228,0.40726 -2.93037,1.22275 -3.12695,1.8125 -0.51603,1.54807 2.7512,2.54401 4.2539,1.29688 0.69983,-0.5808 2.9066,-1.20161 4.9043,-1.38086 1.9977,-0.17926 3.91815,-0.61152 4.26758,-0.96094 0.34942,-0.34943 1.9967,-0.63672 3.66016,-0.63672 2.82579,0 2.89948,0.091 1.125,1.38867 -1.04458,0.76381 -2.40883,1.19392 -3.03125,0.95508 -0.62243,-0.23885 -1.69476,0.24515 -2.38282,1.07422 -1.09853,1.32369 -0.32757,1.47811 6.32032,1.27148 8.73438,-0.27147 11.11912,1.48048 4.65234,3.41797 -2.53256,0.75878 -3.70043,1.61986 -3.36719,2.48828 0.413,1.07627 0.95605,1.03819 2.85352,-0.20507 1.28854,-0.84428 3.61015,-1.37474 5.1582,-1.17774 2.72151,0.34632 2.66556,0.42827 -1.68555,2.47461 -2.475,1.164 -8.1,3.11112 -12.5,4.32617 -9.90687,2.73577 -12.5,3.72009 -12.5,4.7461 0,0.44123 2.3625,0.70621 5.25,0.58789 l 5.25,-0.21485 -3.91992,1.19336 c -6.42925,1.95818 -5.82063,3.8369 0.98438,3.03711 4.12989,-0.48539 5.55203,-0.35942 5.05468,0.44531 -0.96307,1.55829 2.99577,5.27689 4.85743,4.5625 4.42514,-1.69809 -2.01726,4.19455 -9.44727,8.64063 -2.87314,1.71928 -0.27543,1.98972 3.56641,0.37109 2.14695,-0.90455 6.82929,-1.99676 10.40429,-2.42773 3.575,-0.43096 7.9625,-1.10369 9.75,-1.49414 3.3172,-0.72461 4.85884,1.09908 1.75,2.07031 -0.825,0.25774 -2.20459,0.69177 -3.06445,0.96289 -3.20725,1.01125 -0.35562,2.27728 3.28125,1.45703 3.5558,-0.80196 5.22971,-0.56369 4.08594,0.58008 -0.29163,0.29164 -1.82848,0.69924 -3.41602,0.90625 -3.58093,0.46693 -7.55679,1.3998 -13.38672,3.14258 -2.475,0.73987 -6.4125,1.83012 -8.75,2.42187 -6.75239,1.7094 -5.1132,3.07451 3,2.49805 3.9875,-0.28337 6.6875,-0.24914 6,0.0762 -1.78256,0.84348 -1.55374,2.47732 0.25,1.78516 0.825,-0.3166 2.22439,-0.29543 3.11133,0.0449 2.42325,0.92989 -0.0337,3.39495 -4.15429,4.16797 -1.83809,0.34483 -5.22255,2.313 -7.52149,4.37305 -3.55582,3.18633 -3.91791,3.84749 -2.41601,4.42382 0.97097,0.37261 1.44527,0.9981 1.05273,1.39063 -0.95785,0.9578 -3.9301,0.93005 -4.65039,-0.043 -0.31809,-0.42971 -1.66809,-0.34484 -3,0.1875 -2.03998,0.81534 -2.11533,0.97785 -0.47266,1.03125 2.36918,0.077 0.94321,1.70723 -1.94922,2.22852 -1.24557,0.22449 -2.04298,1.20092 -2.11328,2.58593 -0.12001,2.36485 0.69591,2.42937 10.61328,0.85352 2.4785,-0.39383 3.06221,-0.27081 2,0.41992 -1.24768,0.81135 -1.11953,1.08019 0.76954,1.59766 1.79516,0.49175 2.03279,0.91088 1.1289,2 -1.40296,1.69046 0.23452,1.8436 1.90039,0.17773 0.66667,-0.66667 1.20117,-0.75478 1.20117,-0.19922 0,0.55 -0.53276,1.53081 -1.18359,2.18164 -0.65084,0.65084 -0.85105,1.51614 -0.44531,1.92188 0.40574,0.40574 1.10725,0.14044 1.55859,-0.58985 0.53639,-0.86789 1.04259,-0.96644 1.46485,-0.2832 0.35531,0.57491 -0.15094,1.50909 -1.125,2.07617 -1.56329,0.91011 -1.48132,1.0357 0.6914,1.0625 2.14551,0.0265 1.95843,0.28601 -1.46094,2.0293 -2.15759,1.1 -4.32246,2 -4.81054,2 -0.48809,0 -2.30595,0.65087 -4.03907,1.44531 -1.73312,0.79443 -5.73047,2.17283 -8.88281,3.06446 -3.15233,0.89164 -6.03508,2.11427 -6.40625,2.71484 -0.44182,0.71487 0.0707,0.89652 1.48242,0.52734 3.03219,-0.79293 2.69651,1.09257 -0.40429,2.27149 -1.4081,0.53536 -2.2776,1.43047 -1.93164,1.99023 0.7285,1.17875 6.43167,-1.79778 7.21093,-3.76367 0.27251,-0.6875 1.81152,-1.25 3.41993,-1.25 1.60842,0 3.16363,-0.62407 3.45703,-1.38867 0.2934,-0.76459 1.51691,-1.40904 2.71875,-1.43164 2.66406,-0.0502 13.71899,-2.0819 14.73047,-2.70703 1.10298,-0.68168 0.60017,2.92277 -0.51954,3.72461 -0.53548,0.38347 -1.21182,0.31049 -1.5039,-0.16211 -0.73334,-1.18656 -11.30305,1.30759 -11.79492,2.7832 -0.21904,0.65668 -0.79084,0.95136 -1.27149,0.6543 -0.91528,-0.56567 -3.7951,0.82242 -7.83398,3.77734 -1.31558,0.9625 -3.34253,1.7657 -4.50586,1.7832 -2.19136,0.0329 -5.61524,2.12779 -5.61524,3.43555 0,0.41071 0.7875,0.40882 1.75,-0.002 0.9625,-0.41077 3.775,-0.91999 6.25,-1.13282 2.475,-0.21284 15.3,-3.03318 28.5,-6.26757 24.02202,-5.8861 43.05216,-10.32799 51.5,-12.01954 2.475,-0.49558 8.55,-1.79403 13.5,-2.88671 36.255,-8.00302 71.59686,-13.62931 105,-16.71485 3.3,-0.30483 9.375,-0.98441 13.5,-1.50976 4.125,-0.52534 17.4,-1.63709 29.5,-2.47071 12.1,-0.83361 25.825,-1.91152 30.5,-2.39648 39.260819,-4.07265 56.409819,-5.25061 108.999999,-7.48242 95.39121,-4.04819 153.389921,-5.02127 212.500001,-3.56446 23.1,0.56931 44.7,1.21492 48,1.4336 3.3,0.21868 14.775,0.65224 25.5,0.96484 29.4303,0.85782 64.0849,2.99326 106.5,6.56055 6.6,0.55509 20.1,1.46269 30,2.01758 9.9,0.55489 19.8,1.23795 22,1.51758 3.7867,0.48132 11.2817,1.22818 35.5,3.53515 8.6298,0.82204 24.5213,3.10235 38,5.45313 11.6867,2.03823 23.6413,3.23962 24.4336,2.45507 1.5255,-1.51074 0.35939,-1.89012 -9.00782,-2.92382 -4.90969,-0.5418 -11.17578,-1.59856 -13.92578,-2.34961 l -5,-1.36524 7.24219,0.0898 c 3.9834,0.0498 7.25,0.42734 7.25,0.83984 0.004,0.4125 1.80781,0.75 4.00781,0.75 2.2,0 3.99024,-0.3375 3.99024,-0.75 -0.0124,-0.9467 -9.20144,-4.21376 -14.49024,-5.15234 -2.2,-0.39043 -4.9,-1.22774 -6,-1.85938 -1.8456,-1.05977 -1.73264,-1.20371 1.47266,-1.86328 l 3.47461,-0.71289 -3.47461,-1.25586 c -1.9104,-0.68982 -4.48516,-1.28828 -5.72266,-1.33008 -1.2375,-0.0418 -2.25,-0.52617 -2.25,-1.07617 0,-1.12221 1.96154,-1.2793 13.61524,-1.09375 4.4637,0.0711 9.1887,-0.29949 10.5,-0.82422 1.3114,-0.52472 1.82226,-0.98268 1.13476,-1.01758 -0.6875,-0.0349 -1.25,-0.73945 -1.25,-1.56445 0,-0.825 -0.45,-1.5 -1,-1.5 -0.55,0 -1,-0.41231 -1,-0.91797 0,-0.54727 1.4396,-0.52258 3.5586,0.0625 1.9578,0.54054 4.0953,0.76453 4.75,0.49805 0.6547,-0.26648 0.16485,-0.5191 -1.08985,-0.5625 -1.2548,-0.0434 -2.54082,-0.75508 -2.85742,-1.58008 -0.3166,-0.825 -1.62645,-1.5 -2.91015,-1.5 -1.2837,0 -2.61128,-0.45 -2.95118,-1 -0.6753,-1.09269 0.3176,-1.30991 5.25,-1.15039 3.9715,0.12845 4.2092,-1.08311 0.5,-2.54883 -2.6613,-1.05161 -2.6129,-1.09041 1.5,-1.19336 3.0638,-0.0767 4.25,-0.52607 4.25,-1.60742 0,-0.83333 -0.8889,-1.5 -2,-1.5 -1.1,0 -2,-0.45 -2,-1 0,-0.55 0.92655,-1 2.06055,-1 1.8105,0 1.66174,-0.36548 -1.22266,-3 -2.4468,-2.23483 -2.84394,-3 -1.56054,-3 2.237,0 2.21925,-2.91389 -0.0274,-4.55664 -2.8643,-2.09443 -0.7032,-2.75158 4.75,-1.44336 5.0584,1.21349 7.23414,0.82936 5.43164,-0.95898 -0.9211,-0.91386 -4.37322,-1.89821 -15.73632,-4.49024 -3.1922,-0.72816 -6.07902,-1.60052 -6.41602,-1.9375 -1.3865,-1.38649 0.63638,-1.44105 6.73828,-0.18359 3.5477,0.73109 7.01865,1.10896 7.71485,0.84179 2.318,-0.8895 1.30887,-2.17158 -2.23243,-2.83593 -3.7402,-0.70167 -4.81932,-2.43555 -1.51562,-2.43555 1.0921,0 4.00355,0.53987 6.46875,1.19922 4.7278,1.26447 7.13133,0.43837 4.45703,-1.53125 -0.8724,-0.64253 -1.39762,-1.73047 -1.16602,-2.41797 0.2316,-0.6875 -0.17881,-1.28046 -0.9121,-1.31836 -6.1393,-0.31724 -11.83204,-2.30661 -11.83204,-4.13477 0,-0.47641 0.95038,-0.3567 2.11328,0.26563 2.82261,1.51064 12.22496,0.26602 9.50196,-1.25781 -0.9921,-0.55525 -4.253,-0.97916 -7.2461,-0.94336 -2.9931,0.0357 -5.20406,-0.31988 -4.91406,-0.78906 0.2899,-0.46918 -1.12678,-1.16214 -3.14648,-1.54102 -5.726,-1.07422 -1.9172,-2.69622 4.6914,-1.99805 3.025,0.31958 7.40508,0.74877 9.73438,0.95508 2.3292,0.20631 4.6917,0.65888 5.25,1.00391 0.5582,0.34503 1.01562,0.16662 1.01562,-0.39649 0,-1.46985 -3.1135,-2.93002 -7.875,-3.6914 -3.0611,-0.48949 -4.125,-1.12361 -4.125,-2.45899 0,-0.98978 -1.02599,-2.62062 -2.27929,-3.62304 -3.0104,-2.40766 -2.41034,-5.3158 1.10156,-5.3379 l 2.67773,-0.0176 -3.25,-2.08203 c -6.1239,-3.92182 -4.0061,-4.72669 6.5,-2.47266 5.8848,1.26257 6.65829,1.18121 6.36719,-0.66211 -0.0651,-0.4125 0.6528,-0.75 1.5957,-0.75 1.586,0 1.59214,-0.12265 0.082,-1.63281 -0.898,-0.89794 -2.4555,-1.70824 -3.46289,-1.80274 -3.67391,-0.34449 -10.33204,-2.66535 -10.33204,-3.60156 0,-1.23212 0.66342,-1.21219 3.10352,0.0937 1.0847,0.58047 2.93312,0.74967 4.10742,0.37695 2.1208,-0.67311 2.11754,-0.68815 -0.28906,-2.11328 l -2.42188,-1.43359 2.6875,0.56055 c 1.4788,0.3084 2.96935,0.10866 3.31055,-0.44336 0.3411,-0.55202 -0.24639,-1.00391 -1.30469,-1.00391 -1.0583,0 -3.1259,-0.94535 -4.5957,-2.10156 -2.117,-1.6652 -2.43257,-2.39275 -1.51367,-3.5 0.6381,-0.76879 1.77941,-1.39844 2.53711,-1.39844 2.0204,0 1.7066,-0.80677 -1.3711,-3.51562 -2.1266,-1.8718 -2.36824,-2.42873 -1.06054,-2.45313 0.9301,-0.0174 1.97491,0.42736 2.32031,0.98633 0.8203,1.3272 2.49023,0.26999 2.49023,-1.57617 0,-0.9205 -1.0384,-1.44141 -2.875,-1.44141 -4.4185,0 -9.125,-1.14091 -9.125,-2.21289 0,-0.5473 2.53077,-0.81739 5.85547,-0.625 5.329,0.30836 5.75715,0.18373 4.77735,-1.38086 -0.5922,-0.94553 -2.32175,-1.99189 -3.84375,-2.32617 -2.6389,-0.5796 -4.46422,-2.1139 -3.57422,-3.00391 0.6866,-0.6866 7.09323,1.43027 7.80273,2.57813 0.9581,1.55027 11.217,2.17844 10.7168,0.65625 -0.2142,-0.65197 -2.32797,-1.32723 -4.69727,-1.5 -2.3693,-0.17277 -4.89984,-0.90571 -5.62304,-1.62891 -0.7232,-0.7232 -3.3524,-1.61888 -5.8418,-1.99219 -2.4894,-0.37332 -4.78908,-1.10287 -5.10938,-1.62109 -0.8056,-1.30358 1.98391,-1.12496 9.03711,0.57812 8.559,2.06665 9.37254,1.85391 5.46094,-1.41601 -2.6748,-2.23594 -4.16081,-2.78033 -6.53711,-2.39649 -2.1526,0.34768 -3.63555,-0.059 -4.93945,-1.35546 -1.816,-1.80551 -1.76703,-1.86016 1.91797,-2.16797 2.0796,-0.17371 5.15629,0.16379 6.83789,0.75 3.5972,1.25398 9.75976,1.41658 9.75976,0.25781 0,-0.88949 -6.97356,-4.19336 -8.85156,-4.19336 -2.2291,0 -9.14844,-2.48771 -9.14844,-3.28906 0,-0.92788 6.6651,0.12238 9.25,1.45703 0.9625,0.49695 1.75,0.57232 1.75,0.16797 0,-0.40435 0.53305,-0.20132 1.18555,0.45117 0.9151,0.91513 1.601,0.81102 3,-0.45508 2.659,-2.40634 2.25765,-5.19476 -0.93555,-6.49219 -8.3888,-3.40846 -13.25,-5.93814 -13.25,-6.89453 0,-1.25493 3.42009,-0.41633 6.67969,1.63672 2.9456,1.85526 9.47375,2.71717 11.31055,1.49414 2.4658,-1.64192 -0.16764,-3.16941 -5.67774,-3.29492 -4.7749,-0.10876 -4.98046,-0.23078 -4.98046,-2.94727 0,-1.69435 0.53658,-2.83398 1.33398,-2.83398 0.7333,0 1.33398,-0.47613 1.33398,-1.05859 0,-0.58246 0.50751,-0.74535 1.12891,-0.36133 0.6892,0.42565 0.94128,0.15745 0.64648,-0.68945 -0.2659,-0.76405 -1.2235,-1.25732 -2.1289,-1.09571 -0.9443,0.16855 -1.64649,-0.36442 -1.64649,-1.25 0,-2.06698 1.1922,-1.94609 3.6836,0.375 2.5594,2.38451 11.80504,4.05202 11.12304,2.00586 -0.2459,-0.7375 -2.62792,-2.0961 -5.29492,-3.01758 l -4.84961,-1.67578 4.16993,-0.70312 c 2.2926,-0.38734 4.16796,-1.11553 4.16796,-1.61719 0,-1.05936 -0.23011,-1.11993 -5.35351,-1.41016 -2.1193,-0.12006 -4.29117,-0.84387 -4.82617,-1.60937 -0.7012,-1.00326 -1.10883,-1.06364 -1.45704,-0.21485 -0.61519,1.49975 -7.25805,0.57659 -9.44335,-1.3125 -0.8683,-0.75059 -2.4433,-1.38535 -3.5,-1.41015 -2.2477,-0.0528 -8.51653,-2.75306 -6.66993,-2.87305 0.6875,-0.0447 1.25,-1.00816 1.25,-2.14062 0,-1.1994 -0.44525,-1.78505 -1.06445,-1.40235 -0.5846,0.36134 -1.8221,-0.002 -2.75,-0.80664 -0.9278,-0.80501 -3.03555,-1.77465 -4.68555,-2.15429 -4.3655,-1.00444 -8.5,-2.92938 -8.5,-3.95899 0,-1.07482 14.98721,0.13906 16.47071,1.33399 1.8001,1.45002 6.65025,0.89824 7.28515,-0.82813 0.3288,-0.89375 1.07982,-1.95529 1.66992,-2.35937 0.61041,-0.418 0.13986,-0.741 -1.09374,-0.75 -3.0684,-0.0217 -5.41868,-1.06571 -4.76758,-2.11915 0.3043,-0.49236 2.35273,-0.89648 4.55273,-0.89648 2.2,0 3.75553,0.39587 3.45703,0.87891 -0.5853,0.94693 3.51488,2.07611 9.92578,2.73437 3.2589,0.33462 3.66042,0.20598 2.16602,-0.69726 -3.2249,-1.94919 1.56861,-4.26271 9.00781,-4.34571 8.0289,-0.0896 8.33087,-1.89342 0.57617,-3.45117 -7.4961,-1.50581 -33.0412,-5.75601 -45.75,-7.61133 -5.5,-0.80294 -14.275,-2.11007 -19.5,-2.90625 -8.5768,-1.30693 -30.2444,-3.92537 -54.5,-6.58593 -14.4133,-1.58097 -72.8531,-5.4529 -99.5,-6.5918 -8.525,-0.36436 -16.0625,-1.11445 -16.75,-1.66602 -0.844,-0.67714 -1.68559,-0.64071 -2.59179,0.11133 -0.7381,0.61207 -1.57117,0.88386 -1.85157,0.60352 -0.2803,-0.28033 -8.1141,-0.71722 -17.4082,-0.97071 -9.294,-0.25348 -24.32344,-0.75689 -33.39844,-1.11914 -9.10695,-0.36351 -60.62644,-0.52288 -110.3457,-0.5 z"
       id="path5817"
       inkscape:connector-curvature="0" />
  </g>
</svg>
